<!DOCTYPE svg PUBLIC "-//W3C//DTD SVG 1.1//EN" "http://www.w3.org/Graphics/SVG/1.1/DTD/svg11.dtd"><svg xmlns="http://www.w3.org/2000/svg" version="1.1" width="auto" height="auto" style="shape-rendering:geometricPrecision; text-rendering:geometricPrecision; image-rendering:optimizeQuality; fill-rule:evenodd; clip-rule:evenodd" xmlns:xlink="http://www.w3.org/1999/xlink">
<g><path style="opacity:0.412" fill="#0e1017" d="M 39.5,27.5 C 38.5,27.5 37.5,27.5 36.5,27.5C 36.5,26.5 36.5,25.5 36.5,24.5C 35.5,24.5 34.5,24.5 33.5,24.5C 33.2927,22.3964 33.126,20.063 33,17.5C 31.8873,18.305 30.7206,18.9717 29.5,19.5C 29.5,18.1667 29.5,16.8333 29.5,15.5C 30.1667,15.5 30.8333,15.5 31.5,15.5C 33.8741,13.5987 34.0407,11.2654 32,8.5C 29.2615,6.29886 26.2615,4.6322 23,3.5C 16.7608,5.23154 13.2608,9.23154 12.5,15.5C 14.5,15.1667 16.5,14.8333 18.5,14.5C 18.8333,14.5 19.1667,14.5 19.5,14.5C 19.1583,15.3382 18.4916,15.6716 17.5,15.5C 15.8102,15.8564 14.8102,16.8564 14.5,18.5C 13.3501,17.1498 12.6834,17.3164 12.5,19C 13.1667,20.6667 13.8333,22.3333 14.5,24C 14.4301,24.7648 14.0967,25.2648 13.5,25.5C 12.1417,24.3744 10.8084,24.3744 9.5,25.5C 7.69454,30.3895 6.3612,35.3895 5.5,40.5C 7.5,40.5 9.5,40.5 11.5,40.5C 11.6427,38.7376 11.3094,37.0709 10.5,35.5C 10.9424,34.2613 11.6091,33.2613 12.5,32.5C 13.4731,34.9479 13.8064,37.6146 13.5,40.5C 13.5,40.8333 13.5,41.1667 13.5,41.5C 10.5,41.5 7.5,41.5 4.5,41.5C 4.1336,36.2954 4.96693,31.2954 7,26.5C 7.83333,24.3333 9.33333,22.8333 11.5,22C 8.54529,8.62446 13.8786,2.29113 27.5,3C 35.3403,7.21007 37.6737,13.5434 34.5,22C 37.079,23.0757 38.7457,24.909 39.5,27.5 Z"></path></g>
<g><path style="opacity:1" fill="#3965bd" d="M 31.5,15.5 C 27.2632,13.4726 22.9298,13.1393 18.5,14.5C 16.5,14.8333 14.5,15.1667 12.5,15.5C 13.2608,9.23154 16.7608,5.23154 23,3.5C 26.2615,4.6322 29.2615,6.29886 32,8.5C 34.0407,11.2654 33.8741,13.5987 31.5,15.5 Z"></path></g>
<g><path style="opacity:1" fill="#132143" d="M 18.5,14.5 C 22.9298,13.1393 27.2632,13.4726 31.5,15.5C 30.8333,15.5 30.1667,15.5 29.5,15.5C 26.2139,14.7929 22.8806,14.4595 19.5,14.5C 19.1667,14.5 18.8333,14.5 18.5,14.5 Z"></path></g>
<g><path style="opacity:1" fill="#c9a279" d="M 19.5,14.5 C 22.8806,14.4595 26.2139,14.7929 29.5,15.5C 29.5,16.8333 29.5,18.1667 29.5,19.5C 29.1667,19.5 28.8333,19.5 28.5,19.5C 28.5,18.5 28.5,17.5 28.5,16.5C 25.1501,16.335 21.8168,16.5017 18.5,17C 21.5535,17.1786 24.5535,17.6786 27.5,18.5C 27.3764,19.1067 27.0431,19.44 26.5,19.5C 25.5514,18.8476 24.3847,18.5143 23,18.5C 21.3189,18.6083 20.1522,19.2749 19.5,20.5C 19.5,20.8333 19.5,21.1667 19.5,21.5C 18.5,21.1667 17.8333,20.5 17.5,19.5C 17.5,18.1667 17.5,16.8333 17.5,15.5C 18.4916,15.6716 19.1583,15.3382 19.5,14.5 Z"></path></g>
<g><path style="opacity:1" fill="#5f4731" d="M 17.5,15.5 C 17.5,16.8333 17.5,18.1667 17.5,19.5C 17.1667,19.5 16.8333,19.5 16.5,19.5C 16.5912,17.3023 15.9245,16.9689 14.5,18.5C 14.8102,16.8564 15.8102,15.8564 17.5,15.5 Z"></path></g>
<g><path style="opacity:1" fill="#7d6c55" d="M 26.5,19.5 C 25.5305,20.6293 24.3638,21.6293 23,22.5C 21.9231,21.5705 20.7564,20.9038 19.5,20.5C 20.1522,19.2749 21.3189,18.6083 23,18.5C 24.3847,18.5143 25.5514,18.8476 26.5,19.5 Z"></path></g>
<g><path style="opacity:1" fill="#233e75" d="M 14.5,18.5 C 15.9245,16.9689 16.5912,17.3023 16.5,19.5C 17.9573,21.6282 18.9573,23.9616 19.5,26.5C 17.5,26.5 15.5,26.5 13.5,26.5C 13.5,26.1667 13.5,25.8333 13.5,25.5C 14.0967,25.2648 14.4301,24.7648 14.5,24C 13.8333,22.3333 13.1667,20.6667 12.5,19C 12.6834,17.3164 13.3501,17.1498 14.5,18.5 Z"></path></g>
<g><path style="opacity:1" fill="#15131c" d="M 16.5,19.5 C 16.8333,19.5 17.1667,19.5 17.5,19.5C 17.8333,20.5 18.5,21.1667 19.5,21.5C 19.8333,22.5 20.5,23.1667 21.5,23.5C 20.7659,24.7079 20.4326,26.0413 20.5,27.5C 18.1667,27.5 15.8333,27.5 13.5,27.5C 13.5,27.1667 13.5,26.8333 13.5,26.5C 15.5,26.5 17.5,26.5 19.5,26.5C 18.9573,23.9616 17.9573,21.6282 16.5,19.5 Z"></path></g>
<g><path style="opacity:1" fill="#f6dcad" d="M 28.5,19.5 C 27.5,21.1667 26.1667,22.5 24.5,23.5C 23.5,23.5 22.5,23.5 21.5,23.5C 20.5,23.1667 19.8333,22.5 19.5,21.5C 19.5,21.1667 19.5,20.8333 19.5,20.5C 20.7564,20.9038 21.9231,21.5705 23,22.5C 24.3638,21.6293 25.5305,20.6293 26.5,19.5C 27.0431,19.44 27.3764,19.1067 27.5,18.5C 24.5535,17.6786 21.5535,17.1786 18.5,17C 21.8168,16.5017 25.1501,16.335 28.5,16.5C 28.5,17.5 28.5,18.5 28.5,19.5 Z"></path></g>
<g><path style="opacity:1" fill="#234077" d="M 33.5,24.5 C 33.1667,25.1667 32.8333,25.8333 32.5,26.5C 30.5,26.5 28.5,26.5 26.5,26.5C 27.0427,23.9616 28.0427,21.6282 29.5,19.5C 30.7206,18.9717 31.8873,18.305 33,17.5C 33.126,20.063 33.2927,22.3964 33.5,24.5 Z"></path></g>
<g><path style="opacity:1" fill="#78624d" d="M 21.5,23.5 C 22.5,23.5 23.5,23.5 24.5,23.5C 25.2341,24.7079 25.5674,26.0413 25.5,27.5C 28.0593,27.1984 30.3926,27.5318 32.5,28.5C 26.1667,28.5 19.8333,28.5 13.5,28.5C 13.5,28.1667 13.5,27.8333 13.5,27.5C 15.8333,27.5 18.1667,27.5 20.5,27.5C 20.4326,26.0413 20.7659,24.7079 21.5,23.5 Z"></path></g>
<g><path style="opacity:1" fill="#3762b8" d="M 33.5,24.5 C 34.5,24.5 35.5,24.5 36.5,24.5C 36.5,25.5 36.5,26.5 36.5,27.5C 37.5,27.5 38.5,27.5 39.5,27.5C 39.5,27.8333 39.5,28.1667 39.5,28.5C 38.8761,28.9169 38.5427,29.5836 38.5,30.5C 39.7951,33.7156 40.4618,37.0489 40.5,40.5C 38.5,40.5 36.5,40.5 34.5,40.5C 35.2569,36.2282 35.0902,31.8948 34,27.5C 33.6174,26.944 33.1174,26.6107 32.5,26.5C 32.8333,25.8333 33.1667,25.1667 33.5,24.5 Z"></path></g>
<g><path style="opacity:1" fill="#101d38" d="M 13.5,27.5 C 13.5,27.8333 13.5,28.1667 13.5,28.5C 12.596,29.209 12.2627,30.209 12.5,31.5C 11.8761,31.0831 11.5427,30.4164 11.5,29.5C 11.7472,28.2867 12.4138,27.62 13.5,27.5 Z"></path></g>
<g><path style="opacity:1" fill="#3761b6" d="M 13.5,25.5 C 13.5,25.8333 13.5,26.1667 13.5,26.5C 13.5,26.8333 13.5,27.1667 13.5,27.5C 12.4138,27.62 11.7472,28.2867 11.5,29.5C 11.5427,30.4164 11.8761,31.0831 12.5,31.5C 12.5,31.8333 12.5,32.1667 12.5,32.5C 11.6091,33.2613 10.9424,34.2613 10.5,35.5C 11.3094,37.0709 11.6427,38.7376 11.5,40.5C 9.5,40.5 7.5,40.5 5.5,40.5C 6.3612,35.3895 7.69454,30.3895 9.5,25.5C 10.8084,24.3744 12.1417,24.3744 13.5,25.5 Z"></path></g>
<g><path style="opacity:1" fill="#d2dbe0" d="M 13.5,28.5 C 19.8333,28.5 26.1667,28.5 32.5,28.5C 33.4834,32.2984 33.8168,36.2984 33.5,40.5C 26.8333,40.5 20.1667,40.5 13.5,40.5C 13.8064,37.6146 13.4731,34.9479 12.5,32.5C 12.5,32.1667 12.5,31.8333 12.5,31.5C 12.2627,30.209 12.596,29.209 13.5,28.5 Z"></path></g>
<g><path style="opacity:1" fill="#1e2618" d="M 20.5,30.5 C 26.2445,29.8255 27.9112,32.1588 25.5,37.5C 19.8074,38.5045 18.1408,36.1711 20.5,30.5 Z"></path></g>
<g><path style="opacity:1" fill="#8ab164" d="M 21.5,31.5 C 26.1608,32.3244 26.6608,34.3244 23,37.5C 20.535,35.946 20.035,33.946 21.5,31.5 Z"></path></g>
<g><path style="opacity:1" fill="#131621" d="M 28.5,19.5 C 28.8333,19.5 29.1667,19.5 29.5,19.5C 28.0427,21.6282 27.0427,23.9616 26.5,26.5C 28.5,26.5 30.5,26.5 32.5,26.5C 33.1174,26.6107 33.6174,26.944 34,27.5C 35.0902,31.8948 35.2569,36.2282 34.5,40.5C 36.5,40.5 38.5,40.5 40.5,40.5C 40.4618,37.0489 39.7951,33.7156 38.5,30.5C 38.5427,29.5836 38.8761,28.9169 39.5,28.5C 40.2679,29.2625 40.7679,30.2625 41,31.5C 41.4983,34.8168 41.665,38.1501 41.5,41.5C 32.1667,41.5 22.8333,41.5 13.5,41.5C 13.5,41.1667 13.5,40.8333 13.5,40.5C 20.1667,40.5 26.8333,40.5 33.5,40.5C 33.8168,36.2984 33.4834,32.2984 32.5,28.5C 30.3926,27.5318 28.0593,27.1984 25.5,27.5C 25.5674,26.0413 25.2341,24.7079 24.5,23.5C 26.1667,22.5 27.5,21.1667 28.5,19.5 Z"></path></g>
</svg>